/* XPM */
static char * coin01_xpm[] = {
"64 64 5 1",
" 	c None",
".	c #25131A",
"+	c #C09344",
"@	c #FFF1CC",
"#	c #FFD569",
"                                                                ",
"                                                                ",
"                                                                ",
"                                                                ",
"                                                                ",
"                                                                ",
"                                                                ",
"                                                                ",
"                                                                ",
"                                                                ",
"                                                                ",
"                                                                ",
"                        ................                        ",
"                        ................                        ",
"                        ................                        ",
"                        ................                        ",
"                    ....++++++++++++++++....                    ",
"                    ....++++++++++++++++....                    ",
"                    ....++++++++++++++++....                    ",
"                    ....++++++++++++++++....                    ",
"                ....++++@@@@@@@@@@@@####++++....                ",
"                ....++++@@@@@@@@@@@@####++++....                ",
"                ....++++@@@@@@@@@@@@####++++....                ",
"                ....++++@@@@@@@@@@@@####++++....                ",
"            ....++++@@@@@@@@++++++++####@@@@++++....            ",
"            ....++++@@@@@@@@++++++++####@@@@++++....            ",
"            ....++++@@@@@@@@++++++++####@@@@++++....            ",
"            ....++++@@@@@@@@++++++++####@@@@++++....            ",
"            ....++++@@@@++++@@@@####++++####++++....            ",
"            ....++++@@@@++++@@@@####++++####++++....            ",
"            ....++++@@@@++++@@@@####++++####++++....            ",
"            ....++++@@@@++++@@@@####++++####++++....            ",
"            ....++++####++++########++++####++++....            ",
"            ....++++####++++########++++####++++....            ",
"            ....++++####++++########++++####++++....            ",
"            ....++++####++++########++++####++++....            ",
"            ....++++@@@@####++++++++########++++....            ",
"            ....++++@@@@####++++++++########++++....            ",
"            ....++++@@@@####++++++++########++++....            ",
"            ....++++@@@@####++++++++########++++....            ",
"                ....++++################++++....                ",
"                ....++++################++++....                ",
"                ....++++################++++....                ",
"                ....++++################++++....                ",
"                    ....++++++++++++++++....                    ",
"                    ....++++++++++++++++....                    ",
"                    ....++++++++++++++++....                    ",
"                    ....++++++++++++++++....                    ",
"                        ................                        ",
"                        ................                        ",
"                        ................                        ",
"                        ................                        ",
"                                                                ",
"                                                                ",
"                                                                ",
"                                                                ",
"                                                                ",
"                                                                ",
"                                                                ",
"                                                                ",
"                                                                ",
"                                                                ",
"                                                                ",
"                                                                "};
