/* XPM */
static char * key01_xpm[] = {
"64 64 5 1",
" 	c #3D253B",
".	c #25131A",
"+	c #FFF1CC",
"@	c #C09344",
"#	c #FFD569",
"                                                                ",
"                                                                ",
"                                                                ",
"                                                                ",
"                                                                ",
"                                                                ",
"                                                                ",
"                                                                ",
"                                                                ",
"                                                                ",
"                                                                ",
"                                                                ",
"                                                                ",
"                                                                ",
"                                                                ",
"                                        ........                ",
"                                        ........                ",
"                                        ........                ",
"                                        ........                ",
"                                    ....++++@@@@....            ",
"                                    ....++++@@@@....            ",
"                                    ....++++@@@@....            ",
"                                    ....++++@@@@....            ",
"            ........................@@@@........@@@@....        ",
"            ........................@@@@........@@@@....        ",
"            ........................@@@@........@@@@....        ",
"            ........................@@@@........@@@@....        ",
"            ....@@@@@@@@@@@@@@@@@@@@@@@@    ....@@@@....        ",
"            ....@@@@@@@@@@@@@@@@@@@@@@@@    ....@@@@....        ",
"            ....@@@@@@@@@@@@@@@@@@@@@@@@    ....@@@@....        ",
"            ....@@@@@@@@@@@@@@@@@@@@@@@@    ....@@@@....        ",
"            ....++++++++####........++++    ....@@@@....        ",
"            ....++++++++####........++++    ....@@@@....        ",
"            ....++++++++####........++++    ....@@@@....        ",
"            ....++++++++####........++++    ....@@@@....        ",
"            ....++++....####    ....####    ....####....        ",
"            ....++++....####    ....####    ....####....        ",
"            ....++++....####    ....####    ....####....        ",
"            ....++++....####    ....####    ....####....        ",
"            ....####    ....        ....########....            ",
"            ....####    ....        ....########....            ",
"            ....####    ....        ....########....            ",
"            ....####    ....        ....########....            ",
"                ....                    ........                ",
"                ....                    ........                ",
"                ....                    ........                ",
"                ....                    ........                ",
"                                                                ",
"                                                                ",
"                                                                ",
"                                                                ",
"                                                                ",
"                                                                ",
"                                                                ",
"                                                                ",
"                                                                ",
"                                                                ",
"                                                                ",
"                                                                ",
"                                                                ",
"                                                                ",
"                                                                ",
"                                                                ",
"                                                                "};
