/* XPM */
static char * wall_line_bot_xpm[] = {
"64 64 5 1",
" 	c #4C2F49",
".	c #78514F",
"+	c #6E4A48",
"@	c #3D253B",
"#	c #25131A",
"                                                                ",
"                                                                ",
"                                                                ",
"                                                                ",
"        ................................................        ",
"        ................................................        ",
"        ................................................        ",
"        ................................................        ",
"    ........++++++++++++++++++++++++++++++++++++++++++++....    ",
"    ........++++++++++++++++++++++++++++++++++++++++++++....    ",
"    ........++++++++++++++++++++++++++++++++++++++++++++....    ",
"    ........++++++++++++++++++++++++++++++++++++++++++++....    ",
"    ....++++++++++++++++++++++++++++++++++++++++++++++++++++    ",
"    ....++++++++++++++++++++++++++++++++++++++++++++++++++++    ",
"    ....++++++++++++++++++++++++++++++++++++++++++++++++++++    ",
"    ....++++++++++++++++++++++++++++++++++++++++++++++++++++    ",
"    ++++++++++++++++++++++++++++++++++++++++++++++++++++++++    ",
"    ++++++++++++++++++++++++++++++++++++++++++++++++++++++++    ",
"    ++++++++++++++++++++++++++++++++++++++++++++++++++++++++    ",
"    ++++++++++++++++++++++++++++++++++++++++++++++++++++++++    ",
"    ....++++++++++++++++++++++++++++++++++++++++++++++++++++    ",
"    ....++++++++++++++++++++++++++++++++++++++++++++++++++++    ",
"    ....++++++++++++++++++++++++++++++++++++++++++++++++++++    ",
"    ....++++++++++++++++++++++++++++++++++++++++++++++++++++    ",
"                                                                ",
"                                                                ",
"                                                                ",
"                                                                ",
"@@@@@@@@@@@@@@@@@@@@@@@@@@@@@@@@@@@@@@@@@@@@@@@@@@@@@@@@@@@@@@@@",
"@@@@@@@@@@@@@@@@@@@@@@@@@@@@@@@@@@@@@@@@@@@@@@@@@@@@@@@@@@@@@@@@",
"@@@@@@@@@@@@@@@@@@@@@@@@@@@@@@@@@@@@@@@@@@@@@@@@@@@@@@@@@@@@@@@@",
"@@@@@@@@@@@@@@@@@@@@@@@@@@@@@@@@@@@@@@@@@@@@@@@@@@@@@@@@@@@@@@@@",
"@@@@@@@@####################################################@@@@",
"@@@@@@@@####################################################@@@@",
"@@@@@@@@####################################################@@@@",
"@@@@@@@@####################################################@@@@",
"@@@@################################@@@@####################@@@@",
"@@@@################################@@@@####################@@@@",
"@@@@################################@@@@####################@@@@",
"@@@@################################@@@@####################@@@@",
"@@@@################################@@@@########################",
"@@@@################################@@@@########################",
"@@@@################################@@@@########################",
"@@@@################################@@@@########################",
"########@@@@@@@@@@@@@@@@@@@@####@@@@####@@@@@@@@@@@@@@@@####@@@@",
"########@@@@@@@@@@@@@@@@@@@@####@@@@####@@@@@@@@@@@@@@@@####@@@@",
"########@@@@@@@@@@@@@@@@@@@@####@@@@####@@@@@@@@@@@@@@@@####@@@@",
"########@@@@@@@@@@@@@@@@@@@@####@@@@####@@@@@@@@@@@@@@@@####@@@@",
"@@@@############################################################",
"@@@@############################################################",
"@@@@############################################################",
"@@@@############################################################",
"################################################################",
"################################################################",
"################################################################",
"################################################################",
"################################################################",
"################################################################",
"################################################################",
"################################################################",
"################################################################",
"################################################################",
"################################################################",
"################################################################"};
