/* XPM */
static char * wall_corner_bot_left_xpm[] = {
"64 64 5 1",
" 	c #25131A",
".	c #4C2F49",
"+	c #6E4A48",
"@	c #78514F",
"#	c #3D253B",
"                                    ............................",
"                                    ............................",
"                                    ............................",
"                                    ............................",
"                                    ....++++@@@@@@@@@@@@++++....",
"                                    ....++++@@@@@@@@@@@@++++....",
"                                    ....++++@@@@@@@@@@@@++++....",
"                                    ....++++@@@@@@@@@@@@++++....",
"                                    ....@@@@++++++++@@@@++++....",
"                                    ....@@@@++++++++@@@@++++....",
"                                    ....@@@@++++++++@@@@++++....",
"                                    ....@@@@++++++++@@@@++++....",
"                                    ....@@@@++++++++++++@@@@....",
"                                    ....@@@@++++++++++++@@@@....",
"                                    ....@@@@++++++++++++@@@@....",
"                                    ....@@@@++++++++++++@@@@....",
"                                    ....++++++++++++++++++++....",
"                                    ....++++++++++++++++++++....",
"                                    ....++++++++++++++++++++....",
"                                    ....++++++++++++++++++++....",
"                                    ....++++++++++++++++++++....",
"                                    ....++++++++++++++++++++....",
"                                    ....++++++++++++++++++++....",
"                                    ....++++++++++++++++++++....",
"                                    ####........................",
"                                    ####........................",
"                                    ####........................",
"                                    ####........................",
"                                        ########################",
"                                        ########################",
"                                        ########################",
"                                        ########################",
"                                    ####                        ",
"                                    ####                        ",
"                                    ####                        ",
"                                    ####                        ",
"                                    ####                        ",
"                                    ####                        ",
"                                    ####                        ",
"                                    ####                        ",
"                                    ####                        ",
"                                    ####                        ",
"                                    ####                        ",
"                                    ####                        ",
"                                                                ",
"                                                                ",
"                                                                ",
"                                                                ",
"                                    ####                        ",
"                                    ####                        ",
"                                    ####                        ",
"                                    ####                        ",
"                                    ####                        ",
"                                    ####                        ",
"                                    ####                        ",
"                                    ####                        ",
"                                                                ",
"                                                                ",
"                                                                ",
"                                                                ",
"                                                                ",
"                                                                ",
"                                                                ",
"                                                                "};
