/* XPM */
static char * wall_line_left_xpm[] = {
"64 64 4 1",
" 	c #25131A",
".	c #4C2F49",
"+	c #78514F",
"@	c #6E4A48",
"                                        ........................",
"                                        ........................",
"                                        ........................",
"                                        ........................",
"                                    ....++++@@@@++++++++++++....",
"                                    ....++++@@@@++++++++++++....",
"                                    ....++++@@@@++++++++++++....",
"                                    ....++++@@@@++++++++++++....",
"                                    ....@@@@@@@@@@@@@@@@++++....",
"                                    ....@@@@@@@@@@@@@@@@++++....",
"                                    ....@@@@@@@@@@@@@@@@++++....",
"                                    ....@@@@@@@@@@@@@@@@++++....",
"                                    ....@@@@@@@@@@@@@@@@++++....",
"                                    ....@@@@@@@@@@@@@@@@++++....",
"                                    ....@@@@@@@@@@@@@@@@++++....",
"                                    ....@@@@@@@@@@@@@@@@++++....",
"                                    ....@@@@@@@@@@@@@@@@++++....",
"                                    ....@@@@@@@@@@@@@@@@++++....",
"                                    ....@@@@@@@@@@@@@@@@++++....",
"                                    ....@@@@@@@@@@@@@@@@++++....",
"                                    ....@@@@@@@@@@@@@@@@++++....",
"                                    ....@@@@@@@@@@@@@@@@++++....",
"                                    ....@@@@@@@@@@@@@@@@++++....",
"                                    ....@@@@@@@@@@@@@@@@++++....",
"                                    ....@@@@@@@@@@@@@@@@++++....",
"                                    ....@@@@@@@@@@@@@@@@++++....",
"                                    ....@@@@@@@@@@@@@@@@++++....",
"                                    ....@@@@@@@@@@@@@@@@++++....",
"                                    ............................",
"                                    ............................",
"                                    ............................",
"                                    ............................",
"                                    ............................",
"                                    ............................",
"                                    ............................",
"                                    ............................",
"                                    ....++++@@@@++++++++++++....",
"                                    ....++++@@@@++++++++++++....",
"                                    ....++++@@@@++++++++++++....",
"                                    ....++++@@@@++++++++++++....",
"                                    ....@@@@@@@@@@@@@@@@++++....",
"                                    ....@@@@@@@@@@@@@@@@++++....",
"                                    ....@@@@@@@@@@@@@@@@++++....",
"                                    ....@@@@@@@@@@@@@@@@++++....",
"                                    ....@@@@@@@@@@@@@@@@++++....",
"                                    ....@@@@@@@@@@@@@@@@++++....",
"                                    ....@@@@@@@@@@@@@@@@++++....",
"                                    ....@@@@@@@@@@@@@@@@++++....",
"                                    ....@@@@@@@@@@@@@@@@++++....",
"                                    ....@@@@@@@@@@@@@@@@++++....",
"                                    ....@@@@@@@@@@@@@@@@++++....",
"                                    ....@@@@@@@@@@@@@@@@++++....",
"                                    ....@@@@@@@@@@@@@@@@++++....",
"                                    ....@@@@@@@@@@@@@@@@++++....",
"                                    ....@@@@@@@@@@@@@@@@++++....",
"                                    ....@@@@@@@@@@@@@@@@++++....",
"                                    ....++++@@@@++++++++++++....",
"                                    ....++++@@@@++++++++++++....",
"                                    ....++++@@@@++++++++++++....",
"                                    ....++++@@@@++++++++++++....",
"                                    ............................",
"                                    ............................",
"                                    ............................",
"                                    ............................"};
