/* XPM */
static char * lock01_xpm[] = {
"64 64 4 1",
" 	c None",
".	c #25131A",
"+	c #ADC1CF",
"@	c #90919E",
"                                                                ",
"                                                                ",
"                                                                ",
"                                                                ",
"                                                                ",
"                                                                ",
"                                                                ",
"                                                                ",
"                                                                ",
"                                                                ",
"                                                                ",
"                                                                ",
"                                                                ",
"                                                                ",
"                                                                ",
"                                                                ",
"                        ....++++++++@@@@....                    ",
"                        ....++++++++@@@@....                    ",
"                        ....++++++++@@@@....                    ",
"                        ....++++++++@@@@....                    ",
"                    ....++++        ....@@@@....                ",
"                    ....++++        ....@@@@....                ",
"                    ....++++        ....@@@@....                ",
"                    ....++++        ....@@@@....                ",
"                    ....++++        ....@@@@....                ",
"                    ....++++        ....@@@@....                ",
"                    ....++++        ....@@@@....                ",
"                    ....++++        ....@@@@....                ",
"                        ....@@@@@@@@++++....                    ",
"                        ....@@@@@@@@++++....                    ",
"                        ....@@@@@@@@++++....                    ",
"                        ....@@@@@@@@++++....                    ",
"                            ....++++....                        ",
"                            ....++++....                        ",
"                            ....++++....                        ",
"                            ....++++....                        ",
"                        ....@@@@    ++++....                    ",
"                        ....@@@@    ++++....                    ",
"                        ....@@@@    ++++....                    ",
"                        ....@@@@    ++++....                    ",
"                        ....@@@@    @@@@....                    ",
"                        ....@@@@    @@@@....                    ",
"                        ....@@@@    @@@@....                    ",
"                        ....@@@@    @@@@....                    ",
"                            ....@@@@....                        ",
"                            ....@@@@....                        ",
"                            ....@@@@....                        ",
"                            ....@@@@....                        ",
"                                ....                            ",
"                                ....                            ",
"                                ....                            ",
"                                ....                            ",
"                                                                ",
"                                                                ",
"                                                                ",
"                                                                ",
"                                                                ",
"                                                                ",
"                                                                ",
"                                                                ",
"                                                                ",
"                                                                ",
"                                                                ",
"                                                                "};
