/* XPM */
static char * stairs01_xpm[] = {
"64 64 7 1",
" 	c None",
".	c #BF704D",
"+	c #895A45",
"@	c #25131A",
"#	c #90919E",
"$	c #ADC1CF",
"%	c #523B40",
"            ........                        ........            ",
"            ........                        ........            ",
"            ........                        ........            ",
"            ........                        ........            ",
"            ++++++++                        ++++++++            ",
"            ++++++++                        ++++++++            ",
"            ++++++++                        ++++++++            ",
"            ++++++++                        ++++++++            ",
"            ++++++++                        ++++++++            ",
"            ++++++++                        ++++++++            ",
"            ++++++++                        ++++++++            ",
"            ++++++++                        ++++++++            ",
"@@@@@@@@....####$$$$........................$$$$####....@@@@@@@@",
"@@@@@@@@....####$$$$........................$$$$####....@@@@@@@@",
"@@@@@@@@....####$$$$........................$$$$####....@@@@@@@@",
"@@@@@@@@....####$$$$........................$$$$####....@@@@@@@@",
"@@@@@@@@++++++++++++++++++++++++++++++++++++++++++++++++@@@@@@@@",
"@@@@@@@@++++++++++++++++++++++++++++++++++++++++++++++++@@@@@@@@",
"@@@@@@@@++++++++++++++++++++++++++++++++++++++++++++++++@@@@@@@@",
"@@@@@@@@++++++++++++++++++++++++++++++++++++++++++++++++@@@@@@@@",
"@@@@@@@@@@@@%%%%%%%%@@@@@@@@@@@@@@@@@@@@@@@@%%%%%%%%@@@@@@@@@@@@",
"@@@@@@@@@@@@%%%%%%%%@@@@@@@@@@@@@@@@@@@@@@@@%%%%%%%%@@@@@@@@@@@@",
"@@@@@@@@@@@@%%%%%%%%@@@@@@@@@@@@@@@@@@@@@@@@%%%%%%%%@@@@@@@@@@@@",
"@@@@@@@@@@@@%%%%%%%%@@@@@@@@@@@@@@@@@@@@@@@@%%%%%%%%@@@@@@@@@@@@",
"@@@@@@@@@@@@++++++++@@@@@@@@@@@@@@@@@@@@@@@@++++++++@@@@@@@@@@@@",
"@@@@@@@@@@@@++++++++@@@@@@@@@@@@@@@@@@@@@@@@++++++++@@@@@@@@@@@@",
"@@@@@@@@@@@@++++++++@@@@@@@@@@@@@@@@@@@@@@@@++++++++@@@@@@@@@@@@",
"@@@@@@@@@@@@++++++++@@@@@@@@@@@@@@@@@@@@@@@@++++++++@@@@@@@@@@@@",
"@@@@@@@@@@@@++++++++@@@@@@@@@@@@@@@@@@@@@@@@++++++++@@@@@@@@@@@@",
"@@@@@@@@@@@@++++++++@@@@@@@@@@@@@@@@@@@@@@@@++++++++@@@@@@@@@@@@",
"@@@@@@@@@@@@++++++++@@@@@@@@@@@@@@@@@@@@@@@@++++++++@@@@@@@@@@@@",
"@@@@@@@@@@@@++++++++@@@@@@@@@@@@@@@@@@@@@@@@++++++++@@@@@@@@@@@@",
"@@@@@@@@@@@@++++++++@@@@@@@@@@@@@@@@@@@@@@@@++++++++@@@@@@@@@@@@",
"@@@@@@@@@@@@++++++++@@@@@@@@@@@@@@@@@@@@@@@@++++++++@@@@@@@@@@@@",
"@@@@@@@@@@@@++++++++@@@@@@@@@@@@@@@@@@@@@@@@++++++++@@@@@@@@@@@@",
"@@@@@@@@@@@@++++++++@@@@@@@@@@@@@@@@@@@@@@@@++++++++@@@@@@@@@@@@",
"@@@@@@@@@@@@++++++++@@@@@@@@@@@@@@@@@@@@@@@@++++++++@@@@@@@@@@@@",
"@@@@@@@@@@@@++++++++@@@@@@@@@@@@@@@@@@@@@@@@++++++++@@@@@@@@@@@@",
"@@@@@@@@@@@@++++++++@@@@@@@@@@@@@@@@@@@@@@@@++++++++@@@@@@@@@@@@",
"@@@@@@@@@@@@++++++++@@@@@@@@@@@@@@@@@@@@@@@@++++++++@@@@@@@@@@@@",
"@@@@@@@@@@@@++++++++@@@@@@@@@@@@@@@@@@@@@@@@++++++++@@@@@@@@@@@@",
"@@@@@@@@@@@@++++++++@@@@@@@@@@@@@@@@@@@@@@@@++++++++@@@@@@@@@@@@",
"@@@@@@@@@@@@++++++++@@@@@@@@@@@@@@@@@@@@@@@@++++++++@@@@@@@@@@@@",
"@@@@@@@@@@@@++++++++@@@@@@@@@@@@@@@@@@@@@@@@++++++++@@@@@@@@@@@@",
"@@@@@@@@....####$$$$........................$$$$####....@@@@@@@@",
"@@@@@@@@....####$$$$........................$$$$####....@@@@@@@@",
"@@@@@@@@....####$$$$........................$$$$####....@@@@@@@@",
"@@@@@@@@....####$$$$........................$$$$####....@@@@@@@@",
"@@@@@@@@++++++++++++++++++++++++++++++++++++++++++++++++@@@@@@@@",
"@@@@@@@@++++++++++++++++++++++++++++++++++++++++++++++++@@@@@@@@",
"@@@@@@@@++++++++++++++++++++++++++++++++++++++++++++++++@@@@@@@@",
"@@@@@@@@++++++++++++++++++++++++++++++++++++++++++++++++@@@@@@@@",
"@@@@@@@@@@@@%%%%%%%%@@@@@@@@@@@@@@@@@@@@@@@@%%%%%%%%@@@@@@@@@@@@",
"@@@@@@@@@@@@%%%%%%%%@@@@@@@@@@@@@@@@@@@@@@@@%%%%%%%%@@@@@@@@@@@@",
"@@@@@@@@@@@@%%%%%%%%@@@@@@@@@@@@@@@@@@@@@@@@%%%%%%%%@@@@@@@@@@@@",
"@@@@@@@@@@@@%%%%%%%%@@@@@@@@@@@@@@@@@@@@@@@@%%%%%%%%@@@@@@@@@@@@",
"@@@@@@@@@@@@++++++++@@@@@@@@@@@@@@@@@@@@@@@@++++++++@@@@@@@@@@@@",
"@@@@@@@@@@@@++++++++@@@@@@@@@@@@@@@@@@@@@@@@++++++++@@@@@@@@@@@@",
"@@@@@@@@@@@@++++++++@@@@@@@@@@@@@@@@@@@@@@@@++++++++@@@@@@@@@@@@",
"@@@@@@@@@@@@++++++++@@@@@@@@@@@@@@@@@@@@@@@@++++++++@@@@@@@@@@@@",
"@@@@@@@@@@@@++++++++@@@@@@@@@@@@@@@@@@@@@@@@++++++++@@@@@@@@@@@@",
"@@@@@@@@@@@@++++++++@@@@@@@@@@@@@@@@@@@@@@@@++++++++@@@@@@@@@@@@",
"@@@@@@@@@@@@++++++++@@@@@@@@@@@@@@@@@@@@@@@@++++++++@@@@@@@@@@@@",
"@@@@@@@@@@@@++++++++@@@@@@@@@@@@@@@@@@@@@@@@++++++++@@@@@@@@@@@@"};
