/* XPM */
static char * trapdoor01_xpm[] = {
"64 64 6 1",
" 	c None",
".	c #25131A",
"+	c #90919E",
"@	c #ADC1CF",
"#	c #523B40",
"$	c #895A45",
"    ........................................................    ",
"    ........................................................    ",
"    ........................................................    ",
"    ........................................................    ",
"........++++++++++++++++++++++++++++++++++++++++++++++++........",
"........++++++++++++++++++++++++++++++++++++++++++++++++........",
"........++++++++++++++++++++++++++++++++++++++++++++++++........",
"........++++++++++++++++++++++++++++++++++++++++++++++++........",
"....++++@@@@....++++@@@@................@@@@++++....@@@@++++....",
"....++++@@@@....++++@@@@................@@@@++++....@@@@++++....",
"....++++@@@@....++++@@@@................@@@@++++....@@@@++++....",
"....++++@@@@....++++@@@@................@@@@++++....@@@@++++....",
"....++++........++++@@@@####$$$$$$$$####@@@@++++........++++....",
"....++++........++++@@@@####$$$$$$$$####@@@@++++........++++....",
"....++++........++++@@@@####$$$$$$$$####@@@@++++........++++....",
"....++++........++++@@@@####$$$$$$$$####@@@@++++........++++....",
"....@@@@....####++++@@@@@@@@@@@@@@@@@@@@@@@@++++####....@@@@....",
"....@@@@....####++++@@@@@@@@@@@@@@@@@@@@@@@@++++####....@@@@....",
"....@@@@....####++++@@@@@@@@@@@@@@@@@@@@@@@@++++####....@@@@....",
"....@@@@....####++++@@@@@@@@@@@@@@@@@@@@@@@@++++####....@@@@....",
"....@@@@....$$$$@@@@@@@@................@@@@@@@@$$$$....@@@@....",
"....@@@@....$$$$@@@@@@@@................@@@@@@@@$$$$....@@@@....",
"....@@@@....$$$$@@@@@@@@................@@@@@@@@$$$$....@@@@....",
"....@@@@....$$$$@@@@@@@@................@@@@@@@@$$$$....@@@@....",
"....@@@@....$$$$........####$$$$$$$$####........$$$$....@@@@....",
"....@@@@....$$$$........####$$$$$$$$####........$$$$....@@@@....",
"....@@@@....$$$$........####$$$$$$$$####........$$$$....@@@@....",
"....@@@@....$$$$........####$$$$$$$$####........$$$$....@@@@....",
"....@@@@....$$$$####$$$$####$$$$$$$$####$$$$####$$$$....@@@@....",
"....@@@@....$$$$####$$$$####$$$$$$$$####$$$$####$$$$....@@@@....",
"....@@@@....$$$$####$$$$####$$$$$$$$####$$$$####$$$$....@@@@....",
"....@@@@....$$$$####$$$$####$$$$$$$$####$$$$####$$$$....@@@@....",
"....@@@@....$$$$####$$$$####$$$$$$$$####$$$$####$$$$....@@@@....",
"....@@@@....$$$$####$$$$####$$$$$$$$####$$$$####$$$$....@@@@....",
"....@@@@....$$$$####$$$$####$$$$$$$$####$$$$####$$$$....@@@@....",
"....@@@@....$$$$####$$$$####$$$$$$$$####$$$$####$$$$....@@@@....",
"....@@@@....$$$$####$$$$####$$$$$$$$####$$$$####$$$$....@@@@....",
"....@@@@....$$$$####$$$$####$$$$$$$$####$$$$####$$$$....@@@@....",
"....@@@@....$$$$####$$$$####$$$$$$$$####$$$$####$$$$....@@@@....",
"....@@@@....$$$$####$$$$####$$$$$$$$####$$$$####$$$$....@@@@....",
"....++++....$$$$####$$$$####$$$$$$$$####$$$$####$$$$....++++....",
"....++++....$$$$####$$$$####$$$$$$$$####$$$$####$$$$....++++....",
"....++++....$$$$####$$$$####$$$$$$$$####$$$$####$$$$....++++....",
"....++++....$$$$####$$$$####$$$$$$$$####$$$$####$$$$....++++....",
"....@@@@....$$$$####$$$$####$$$$$$$$####$$$$####$$$$....@@@@....",
"....@@@@....$$$$####$$$$####$$$$$$$$####$$$$####$$$$....@@@@....",
"....@@@@....$$$$####$$$$####$$$$$$$$####$$$$####$$$$....@@@@....",
"....@@@@....$$$$####$$$$####$$$$$$$$####$$$$####$$$$....@@@@....",
"....++++....########################################....++++....",
"....++++....########################################....++++....",
"....++++....########################################....++++....",
"....++++....########################################....++++....",
"....++++@@@@........................................@@@@++++....",
"....++++@@@@........................................@@@@++++....",
"....++++@@@@........................................@@@@++++....",
"....++++@@@@........................................@@@@++++....",
"........++++++++++++++++++++++++++++++++++++++++++++++++........",
"........++++++++++++++++++++++++++++++++++++++++++++++++........",
"........++++++++++++++++++++++++++++++++++++++++++++++++........",
"........++++++++++++++++++++++++++++++++++++++++++++++++........",
"    ........................................................    ",
"    ........................................................    ",
"    ........................................................    ",
"    ........................................................    "};
