/* XPM */
static char * cat07_xpm[] = {
"64 64 4 1",
" 	c #3D253B",
".	c #2F2F2E",
"+	c #B5B5B5",
"@	c #E0E0E0",
"                                                                ",
"                                                                ",
"                                                                ",
"                                                                ",
"                                                                ",
"                                                                ",
"                                                                ",
"                                                                ",
"                                                                ",
"                                                                ",
"                                                                ",
"                                                                ",
"                        ........                                ",
"                        ........                                ",
"                        ........                                ",
"                        ........                                ",
"                        ....++++............                    ",
"                        ....++++............                    ",
"                        ....++++............                    ",
"                        ....++++............                    ",
"                        ....++++@@@@@@@@@@@@........            ",
"                        ....++++@@@@@@@@@@@@........            ",
"                        ....++++@@@@@@@@@@@@........            ",
"                        ....++++@@@@@@@@@@@@........            ",
"                        ....++++@@@@@@@@@@@@....@@@@....        ",
"                        ....++++@@@@@@@@@@@@....@@@@....        ",
"                        ....++++@@@@@@@@@@@@....@@@@....        ",
"                        ....++++@@@@@@@@@@@@....@@@@....        ",
"                        ....++++........++++............        ",
"                        ....++++........++++............        ",
"                        ....++++........++++............        ",
"                        ....++++........++++............        ",
"                        ....++++++++++++++++++++........        ",
"                        ....++++++++++++++++++++........        ",
"                        ....++++++++++++++++++++........        ",
"                        ....++++++++++++++++++++........        ",
"                    ....++++++++................@@@@....        ",
"                    ....++++++++................@@@@....        ",
"                    ....++++++++................@@@@....        ",
"                    ....++++++++................@@@@....        ",
"                    ....++++@@@@@@@@@@@@@@@@........            ",
"                    ....++++@@@@@@@@@@@@@@@@........            ",
"                    ....++++@@@@@@@@@@@@@@@@........            ",
"                    ....++++@@@@@@@@@@@@@@@@........            ",
"        ............++++++++@@@@....@@@@....                    ",
"        ............++++++++@@@@....@@@@....                    ",
"        ............++++++++@@@@....@@@@....                    ",
"        ............++++++++@@@@....@@@@....                    ",
"    ....++++++++....++++++++@@@@....@@@@....                    ",
"    ....++++++++....++++++++@@@@....@@@@....                    ",
"    ....++++++++....++++++++@@@@....@@@@....                    ",
"    ....++++++++....++++++++@@@@....@@@@....                    ",
"    ........................................                    ",
"    ........................................                    ",
"    ........................................                    ",
"    ........................................                    ",
"                                                                ",
"                                                                ",
"                                                                ",
"                                                                ",
"                                                                ",
"                                                                ",
"                                                                ",
"                                                                "};
