/* XPM */
static char * cat01_xpm[] = {
"64 64 4 1",
" 	c none",
".	c #2F2F2E",
"+	c #B5B5B5",
"@	c #E0E0E0",
"                                                                ",
"                                                                ",
"                                                                ",
"                                                                ",
"                                                                ",
"                                                                ",
"                                                                ",
"                                                                ",
"                        ........            ........            ",
"                        ........            ........            ",
"                        ........            ........            ",
"                        ........            ........            ",
"                        ....++++............++++....            ",
"                        ....++++............++++....            ",
"                        ....++++............++++....            ",
"                        ....++++............++++....            ",
"                        ....++++@@@@@@@@@@@@@@@@....            ",
"                        ....++++@@@@@@@@@@@@@@@@....            ",
"                        ....++++@@@@@@@@@@@@@@@@....            ",
"                        ....++++@@@@@@@@@@@@@@@@....            ",
"                        ....++++........++++........            ",
"                        ....++++........++++........            ",
"                        ....++++........++++........            ",
"                        ....++++........++++........            ",
"                        ....++++@@@@@@@@@@@@@@@@....            ",
"                        ....++++@@@@@@@@@@@@@@@@....            ",
"                        ....++++@@@@@@@@@@@@@@@@....            ",
"                        ....++++@@@@@@@@@@@@@@@@....            ",
"                        ....++++++++++++++++++++....            ",
"                        ....++++++++++++++++++++....            ",
"                        ....++++++++++++++++++++....            ",
"                        ....++++++++++++++++++++....            ",
"                    ....++++++++@@@@@@@@............            ",
"                    ....++++++++@@@@@@@@............            ",
"                    ....++++++++@@@@@@@@............            ",
"                    ....++++++++@@@@@@@@............            ",
"                    ....++++++++@@@@....++++@@@@@@@@....        ",
"                    ....++++++++@@@@....++++@@@@@@@@....        ",
"                    ....++++++++@@@@....++++@@@@@@@@....        ",
"                    ....++++++++@@@@....++++@@@@@@@@....        ",
"                    ....++++@@@@@@@@................            ",
"                    ....++++@@@@@@@@................            ",
"                    ....++++@@@@@@@@................            ",
"                    ....++++@@@@@@@@................            ",
"        ............++++++++@@@@....@@@@....                    ",
"        ............++++++++@@@@....@@@@....                    ",
"        ............++++++++@@@@....@@@@....                    ",
"        ............++++++++@@@@....@@@@....                    ",
"    ....++++++++....++++++++@@@@....@@@@....                    ",
"    ....++++++++....++++++++@@@@....@@@@....                    ",
"    ....++++++++....++++++++@@@@....@@@@....                    ",
"    ....++++++++....++++++++@@@@....@@@@....                    ",
"    ........................................                    ",
"    ........................................                    ",
"    ........................................                    ",
"    ........................................                    ",
"                                                                ",
"                                                                ",
"                                                                ",
"                                                                ",
"                                                                ",
"                                                                ",
"                                                                ",
"                                                                "};
