/* XPM */
static char * enemy02_xpm[] = {
"64 64 6 1",
" 	c None",
".	c #25131A",
"+	c #62ABD4",
"@	c #A7D1E6",
"#	c #577EA1",
"$	c #56587B",
"                                                                ",
"                                                                ",
"                                                                ",
"                                                                ",
"                                                                ",
"                                                                ",
"                                                                ",
"                                                                ",
"                       ....                                     ",
"                       ....                                     ",
"                       ....                                     ",
"                       ....                                     ",
"                   ....++++............                         ",
"                   ....++++............                         ",
"                   ....++++............                         ",
"                   ....++++............                         ",
"                   ....++++++++++++++++........                 ",
"                   ....++++++++++++++++........                 ",
"                   ....++++++++++++++++........                 ",
"                   ....++++++++++++++++........                 ",
"           ....        ....++++@@@@@@@@++++++++....             ",
"           ....        ....++++@@@@@@@@++++++++....             ",
"           ....        ....++++@@@@@@@@++++++++....             ",
"           ....        ....++++@@@@@@@@++++++++....             ",
"       ....++++........++++@@@@@@@@@@@@@@@@++++....             ",
"       ....++++........++++@@@@@@@@@@@@@@@@++++....             ",
"       ....++++........++++@@@@@@@@@@@@@@@@++++....             ",
"       ....++++........++++@@@@@@@@@@@@@@@@++++....             ",
"       ....@@@@++++++++++++....................++++....         ",
"       ....@@@@++++++++++++....................++++....         ",
"       ....@@@@++++++++++++....................++++....         ",
"       ....@@@@++++++++++++....................++++....         ",
"       ........@@@@@@@@....####++++++++++++####........         ",
"       ........@@@@@@@@....####++++++++++++####........         ",
"       ........@@@@@@@@....####++++++++++++####........         ",
"       ........@@@@@@@@....####++++++++++++####........         ",
"           ....@@@@....####++++++++++++++++++++####....         ",
"           ....@@@@....####++++++++++++++++++++####....         ",
"           ....@@@@....####++++++++++++++++++++####....         ",
"           ....@@@@....####++++++++++++++++++++####....         ",
"               ........####$$$$$$$$....++++$$$$........         ",
"               ........####$$$$$$$$....++++$$$$........         ",
"               ........####$$$$$$$$....++++$$$$........         ",
"               ........####$$$$$$$$....++++$$$$........         ",
"                   ....####............++++............         ",
"                   ....####............++++............         ",
"                   ....####............++++............         ",
"                   ....####............++++............         ",
"                       ....####++++++++++++++++####....         ",
"                       ....####++++++++++++++++####....         ",
"                       ....####++++++++++++++++####....         ",
"                       ....####++++++++++++++++####....         ",
"                           ....####++++....####....             ",
"                           ....####++++....####....             ",
"                           ....####++++....####....             ",
"                           ....####++++....####....             ",
"                               ........    ....                 ",
"                               ........    ....                 ",
"                               ........    ....                 ",
"                               ........    ....                 ",
"                                                                ",
"                                                                ",
"                                                                ",
"                                                                "};
